<svg id="5acb3710-2140-4a44-b88a-3fccb4abeb77" data-name="Layer 1" xmlns="http://www.w3.org/2000/svg" xmlns:xlink="http://www.w3.org/1999/xlink" viewBox="0 0 200 131.46"><defs><style>.\30 5c9eb62-c739-401a-a6d2-82e30fa00187,.\30 a5fbbad-9979-4839-9b2d-04a08eb704ef,.\33 5397a8d-6de0-4c0c-be55-aa436f91f24d,.\37 7626719-9c02-457f-9009-8509548cae2c,.ac31ff63-1667-4abe-95c7-ecaefc41eb88{fill:none;}.\35 fff2dea-2d25-4ab5-99e8-be33fd719a4b{fill:#1b2655;}.cf720ccb-e940-43a1-badb-d1594ead01f1{fill:#1e9ad7;}.\30 a5fbbad-9979-4839-9b2d-04a08eb704ef{stroke:#1e9ad7;}.\30 a5fbbad-9979-4839-9b2d-04a08eb704ef,.\33 5397a8d-6de0-4c0c-be55-aa436f91f24d,.\37 7626719-9c02-457f-9009-8509548cae2c,.ac31ff63-1667-4abe-95c7-ecaefc41eb88{stroke-width:0.05px;}.\37 d818fb0-c4b9-42d8-ba80-89d79a55016c{fill:#fcaf1a;}.\39 f1e528d-8084-4f3b-80d9-770e95aff3c8{clip-path:url(#0a5b29de-5bcf-4df2-8010-bcd4f3fdc604);}.ac31ff63-1667-4abe-95c7-ecaefc41eb88{stroke:#fcaf1a;}.e7dcc03e-b92a-4f77-8fbe-7feefaff76ac{fill:#b3d236;}.\37 7626719-9c02-457f-9009-8509548cae2c{stroke:#b3d236;}.\36 2f2bd49-f1a0-405b-bf2b-192cbebd9738{fill:#ef5ca0;}.\33 5397a8d-6de0-4c0c-be55-aa436f91f24d{stroke:#ef5ca0;}</style><clipPath id="0a5b29de-5bcf-4df2-8010-bcd4f3fdc604" transform="translate(0 -1.84)"><rect class="05c9eb62-c739-401a-a6d2-82e30fa00187" y="1.69" width="200" height="131.61"/></clipPath></defs><title>logo</title><polyline class="5fff2dea-2d25-4ab5-99e8-be33fd719a4b" points="109.95 127.49 89.97 127.49 98.86 77.21 78.01 77.21 90.11 61.39 141.09 61.39 138.29 77.21 118.83 77.21"/><path class="5fff2dea-2d25-4ab5-99e8-be33fd719a4b" d="M197.38,78.55L200,63.7a64.8,64.8,0,0,0-16.27-2.24c-25.5,0-40.86,17.32-44.12,35.76-3.44,19.48,8,32.86,29.87,33.8a63,63,0,0,0,19.05-2.28l2.53-14.32a43.76,43.76,0,0,1-13.25,2.28c-14,0-19.46-9-17.47-20.23a24.76,24.76,0,0,1,23.6-20,20,20,0,0,1,2.14.08,68.41,68.41,0,0,1,11.31,2" transform="translate(0 -1.84)"/><polyline class="5fff2dea-2d25-4ab5-99e8-be33fd719a4b" points="41.45 111.14 25.93 131.46 0 61.38 26.51 61.38"/><polyline class="cf720ccb-e940-43a1-badb-d1594ead01f1" points="43.77 108.08 88.88 49.14 65.06 49.14"/><polygon class="0a5fbbad-9979-4839-9b2d-04a08eb704ef" points="43.77 108.08 88.88 49.14 65.06 49.14 43.77 108.08"/><polyline class="7d818fb0-c4b9-42d8-ba80-89d79a55016c" points="107.12 0.02 82.73 0.02 72.42 28.68 90.33 28.68"/><g class="9f1e528d-8084-4f3b-80d9-770e95aff3c8"><polygon class="ac31ff63-1667-4abe-95c7-ecaefc41eb88" points="107.12 0.02 82.73 0.02 72.42 28.68 90.33 28.68 107.12 0.02"/></g><polyline class="e7dcc03e-b92a-4f77-8fbe-7feefaff76ac" points="59.75 28.68 43.77 108.08 72.42 28.68"/><polygon class="77626719-9c02-457f-9009-8509548cae2c" points="59.75 28.68 43.77 108.08 72.42 28.68 59.75 28.68"/><polyline class="62f2bd49-f1a0-405b-bf2b-192cbebd9738" points="72.42 28.68 43.77 108.08 90.33 28.68"/><polygon class="35397a8d-6de0-4c0c-be55-aa436f91f24d" points="72.42 28.68 43.77 108.08 90.33 28.68 72.42 28.68"/></svg>